<?xml version="1.0" encoding="utf-8"?>
<!-- Generator: Adobe Illustrator 27.3.0, SVG Export Plug-In . SVG Version: 6.00 Build 0)  -->
<svg version="1.1" id="Layer_1" xmlns="http://www.w3.org/2000/svg" xmlns:xlink="http://www.w3.org/1999/xlink" x="0px" y="0px"
	 viewBox="0 0 269.29 102.01" style="enable-background:new 0 0 269.29 102.01;" xml:space="preserve">
<style type="text/css">
	.st0{fill:#444444;}
	.st1{fill:#A39EFF;}
	.st2{fill:#CDCAFF;}
	.st3{fill:#584CFF;}
	.st4{fill:#FFFFFF;}
</style>
<path class="st0" d="M81.92,54.39c-2.13,0-3.95,0-5.78,0c-0.06-0.14-0.11-0.29-0.17-0.43c1.82-1.18,3.65-2.36,5.86-3.8
	c0-7.49,0-15.63,0-24.03c0.63,0,1.13,0,1.63,0c7.31,0,14.62-0.02,21.93,0.01c8.29,0.03,14.84,5.72,15.96,13.88
	c0.56,4.08-0.61,7.74-3.06,11.02c-0.44,0.6-0.82,0.87-1.55,0.4c-0.7-0.44-1.49-0.75-2.34-1.16c0.34-0.45,0.6-0.83,0.89-1.19
	c5.6-7.05,1.51-18.2-7.46-19.07c-7.28-0.71-14.69-0.14-22.18-0.14c0,6.92,0,13.87,0,21.03c0.56,0,1.12,0,1.68,0
	c7.04,0,14.09-0.11,21.13,0.03c12.34,0.24,20.61,13.9,14.89,24.71c-3.18,6-8.28,9.43-15.22,9.52c-8.31,0.11-16.63,0.03-24.95,0.03
	c-0.36,0-0.73-0.05-1.27-0.09C81.92,74.93,81.92,64.79,81.92,54.39z M85.52,81.59c0.38,0.09,0.52,0.16,0.67,0.16
	c7.52,0,15.05,0.18,22.57-0.05c8.35-0.26,14.5-8.88,12.38-17c-1.57-6.02-6.97-10.21-13.51-10.29c-6.99-0.08-13.98,0-20.97-0.04
	c-1.11-0.01-1.16,0.59-1.15,1.41c0.01,5.03,0.01,10.07,0.01,15.1C85.52,74.42,85.52,77.97,85.52,81.59z"/>
<path class="st0" d="M170.6,63.98c-0.05,11.74-9.68,21.02-21.4,21.28c-11.87,0.27-22.49-9.64-22.22-21.63
	c0.25-11.42,9.79-20.79,21.14-21.13C160.5,42.13,171.02,52.36,170.6,63.98z M130.61,63.89c0.03,9.98,8.15,17.83,18.45,17.82
	c9.9,0,17.96-8.1,18.06-17.92c0.1-9.89-8.86-18.16-18.79-17.82C138.62,46.31,130.58,54.15,130.61,63.89z"/>
<path class="st0" d="M231.25,85.3c1.16,0,2.2,0,3.36,0c0.46,3.6,1.96,6.67,4.7,9.06c4.61,4.03,9.92,4.82,15.4,2.48
	c5.49-2.34,8.69-6.7,8.72-12.87c0.06-13.08,0.02-26.16,0.02-39.24c0-0.63,0-1.26,0-2.07c0.8-0.04,1.52-0.04,2.23-0.11
	c0.94-0.08,1.37,0.27,1.32,1.26c-0.05,0.9-0.01,1.8-0.01,2.7c0,12.34,0.03,24.68-0.01,37.02c-0.03,8.96-5.75,16.02-14.55,17.64
	c-12.37,2.28-20.6-7.1-21.19-15.23C231.2,85.79,231.23,85.63,231.25,85.3z"/>
<path class="st0" d="M218.31,85.14c-1.32,0-2.31,0-3.56,0c0-0.66,0-1.28,0-1.89c0-10.17-0.03-20.33,0.03-30.5
	c0.01-1.5-0.46-1.94-1.89-1.85c-1.69,0.11-3.39-0.07-5.08,0.05c-1.46,0.1-2.07-0.39-1.84-1.86c0.08-0.51,0.07-1.03,0.1-1.69
	c2.91,0,5.69,0,8.67,0c0-2.41-0.02-4.67,0-6.93c0.07-7.73,6.51-14.21,14.25-14.33c0.25,0,0.51,0.03,0.85,0.06c0,1.14,0,2.23,0,3.37
	c-1.04,0.15-2.05,0.21-3.02,0.44c-4.62,1.11-8.02,4.89-8.39,9.6c-0.2,2.51-0.04,5.06-0.04,7.74c2.86,0,5.64,0,8.55,0
	c0,1.22,0,2.29,0,3.58c-2.34,0-4.66,0.07-6.97-0.03c-1.34-0.06-1.7,0.44-1.69,1.73c0.04,10.11,0.02,20.23,0.02,30.34
	C218.31,83.65,218.31,84.32,218.31,85.14z"/>
<path class="st0" d="M195.24,81.72c0,1.22,0,2.21,0,3.2c-8.16,2.42-17.26-1.6-19.98-9c-0.67-1.84-0.92-3.92-0.93-5.9
	c-0.08-12.29-0.04-24.57-0.04-36.86c0-3.14,0.14-3.25,3.56-2.59c0,0.57,0,1.19,0,1.81c0,12.5,0,25,0,37.5
	c0,7.16,4.62,11.79,11.83,11.84C191.47,81.73,193.26,81.72,195.24,81.72z"/>
<path class="st0" d="M231.04,42.71c3.49-0.43,3.49-0.43,3.49,2.73c0,7.26-0.05,14.51,0.02,21.77c0.09,10.34,10.04,17.2,19.59,13.54
	c3.1-1.19,5.53-3.25,7.59-6.04c0,1.65,0.04,3.3-0.03,4.95c-0.01,0.35-0.36,0.75-0.67,1c-5.8,4.9-12.4,6.04-19.27,3.05
	c-6.79-2.95-10.7-8.34-10.78-16c-0.08-7.84-0.02-15.68-0.02-23.51C230.97,43.73,231.01,43.27,231.04,42.71z"/>
<path class="st0" d="M202.48,85.12c-1.22,0-2.31,0-3.49,0c0-14.14,0-28.2,0-42.4c1.12,0,2.24,0,3.49,0
	C202.48,56.78,202.48,70.88,202.48,85.12z"/>
<path class="st0" d="M189.83,47.52c0,1.14,0,2.13,0,3.27c-3.3,0-6.55,0-9.95,0c0-1.04,0-2.11,0-3.27
	C183.17,47.52,186.42,47.52,189.83,47.52z"/>
<path class="st0" d="M202.52,34.2c0,1.09,0,2.12,0,3.28c-1.19,0-2.31,0-3.53,0c0-1.09,0-2.12,0-3.28
	C200.09,34.2,201.22,34.2,202.52,34.2z"/>
<path class="st3" d="M37.95,19.16c-10.22,0-21.47-1.85-29.61,5.68C2.2,30.52,2.1,37.95,2.1,45.65v15.39c0,4.65-0.66,9.88,0.46,14.41
	c1.07,4.29,3.31,7.89,6.55,10.89c5.31,4.92,11.91,5.08,18.7,5.08h20.26c2.77,0,5.84-0.42,8.57-0.16c5.95,0.58,11.41,4.93,17.34,5.81
	l-2.9-3.31l-5.86-6.23c2.1-0.89,3.93-3.21,5.19-5.06c4.88-7.19,3.57-16.1,3.57-24.35c0-12.75,2.79-28.27-9.93-36.07
	c-1.86-1.14-3.91-1.96-6.04-2.45c-5.44-1.26-11.77-0.44-17.34-0.44c0-2.98-0.73-7.05,0.06-9.91c0.19-0.69,0.94-0.96,1.39-1.45
	c0.88-0.95,1.26-2.38,0.97-3.64c-0.88-3.81-6.91-4.01-7.62,0c-0.22,1.22-0.03,2.53,0.79,3.49c0.52,0.61,1.4,0.96,1.62,1.78
	C38.63,12.28,37.95,16.21,37.95,19.16z"/>
<path class="st4" d="M58.98,66.38c-5.32,1.94-9.79,5.04-15.58,5.84c-4.64,0.64-9.43,0.71-13.44-2.1
	c-6.25-4.37-7.13-12.11-6.46-19.13c0.27-2.86,0.57-5.84,2.44-8.18c4.58-5.73,14.66-7.33,20.38-2.3c2.89,2.54,3.6,5.37,4.48,8.92
	l-25.91,6.62c2.02,0.85,6.19-0.27,8.38-0.53c5.97-0.71,12.11-1.32,18.12-1.61c1.88-0.09,3.78-0.31,5.65-0.53
	c0.86-0.1,1.86,0.1,1.93-1.03c0.16-2.51-0.71-5.66-1.58-7.98c-1.05-2.78-2.52-5.47-4.65-7.59c-11.82-11.83-33.12-4.7-37.02,10.9
	c-2.31,9.23,0.1,20.21,7.62,26.4C33.95,82.83,53.34,79.46,58.98,66.38z"/>
</svg>
