<?xml version="1.0" encoding="utf-8"?>
<!-- Generator: Adobe Illustrator 26.0.1, SVG Export Plug-In . SVG Version: 6.00 Build 0)  -->
<svg version="1.1" id="Layer_1" xmlns="http://www.w3.org/2000/svg" xmlns:xlink="http://www.w3.org/1999/xlink" x="0px" y="0px"
	 viewBox="0 0 300 250" style="enable-background:new 0 0 300 250;" xml:space="preserve">
<style type="text/css">
	.st0{fill:#444444;}
	.st1{fill:#CDCAFF;}
</style>
<path class="st0" d="M16.3,119.79c-3.15,0-5.86,0-8.57,0c-0.08-0.21-0.17-0.42-0.25-0.64c2.7-1.75,5.4-3.5,8.68-5.63
	c0-11.1,0-23.17,0-35.61c0.93,0,1.68,0,2.42,0c10.83,0,21.67-0.03,32.5,0.01c12.28,0.05,22,8.47,23.65,20.58
	c0.83,6.05-0.91,11.47-4.53,16.34c-0.66,0.88-1.22,1.28-2.3,0.59c-1.03-0.66-2.2-1.11-3.47-1.73c0.5-0.67,0.9-1.23,1.32-1.76
	c8.3-10.46,2.24-26.97-11.05-28.26c-10.79-1.05-21.77-0.21-32.86-0.21c0,10.25,0,20.56,0,31.17c0.83,0,1.66,0,2.5,0
	c10.44,0,20.88-0.16,31.32,0.04c18.29,0.35,30.55,20.6,22.06,36.62c-4.71,8.89-12.27,13.98-22.56,14.11
	c-12.32,0.16-24.65,0.04-36.97,0.04c-0.54,0-1.08-0.07-1.88-0.13C16.3,150.23,16.3,135.2,16.3,119.79z M21.63,160.1
	c0.56,0.13,0.78,0.23,1,0.23c11.15,0,22.31,0.26,33.45-0.08c12.38-0.38,21.48-13.16,18.35-25.19c-2.33-8.93-10.33-15.14-20.02-15.25
	c-10.36-0.12-20.72,0-31.08-0.06c-1.64-0.01-1.71,0.87-1.71,2.09c0.02,7.46,0.01,14.92,0.01,22.38
	C21.63,149.48,21.63,154.73,21.63,160.1z"/>
<path class="st0" d="M147.72,134c-0.08,17.4-14.35,31.15-31.72,31.54c-17.6,0.4-33.33-14.29-32.94-32.06
	c0.37-16.93,14.51-30.81,31.33-31.31C132.76,101.62,148.34,116.79,147.72,134z M88.46,133.87c0.05,14.8,12.08,26.42,27.34,26.41
	c14.68-0.01,26.62-12,26.76-26.56c0.14-14.65-13.13-26.92-27.85-26.4C100.32,107.82,88.42,119.43,88.46,133.87z"/>
<path class="st0" d="M237.6,165.61c1.71,0,3.26,0,4.97,0c0.68,5.34,2.9,9.88,6.97,13.43c6.84,5.97,14.7,7.14,22.82,3.68
	c8.14-3.47,12.88-9.92,12.92-19.08c0.09-19.39,0.03-38.77,0.03-58.16c0-0.93,0-1.87,0-3.07c1.19-0.05,2.25-0.06,3.3-0.16
	c1.39-0.12,2.04,0.4,1.95,1.86c-0.08,1.33-0.01,2.67-0.01,4c0,18.29,0.04,36.58-0.02,54.86c-0.04,13.28-8.52,23.74-21.57,26.15
	c-18.33,3.38-30.52-10.53-31.41-22.57C237.54,166.33,237.58,166.09,237.6,165.61z"/>
<path class="st0" d="M218.44,165.37c-1.95,0-3.43,0-5.28,0c0-0.98,0-1.89,0-2.8c0-15.07-0.05-30.14,0.05-45.2
	c0.01-2.22-0.68-2.87-2.8-2.74c-2.5,0.16-5.03-0.1-7.53,0.08c-2.17,0.15-3.06-0.58-2.73-2.76c0.11-0.75,0.1-1.53,0.15-2.51
	c4.31,0,8.43,0,12.86,0c0-3.57-0.02-6.92,0-10.27c0.1-11.46,9.65-21.06,21.11-21.24c0.38-0.01,0.76,0.05,1.26,0.08c0,1.7,0,3.3,0,5
	c-1.54,0.22-3.04,0.31-4.47,0.65c-6.85,1.64-11.88,7.25-12.44,14.23c-0.3,3.73-0.05,7.49-0.05,11.47c4.24,0,8.36,0,12.67,0
	c0,1.81,0,3.39,0,5.31c-3.47,0-6.9,0.1-10.32-0.04c-1.99-0.08-2.52,0.65-2.51,2.56c0.06,14.99,0.03,29.98,0.03,44.97
	C218.43,163.16,218.44,164.15,218.44,165.37z"/>
<path class="st0" d="M184.23,160.29c0,1.81,0,3.28,0,4.74c-12.09,3.59-25.58-2.37-29.61-13.33c-1-2.72-1.36-5.82-1.38-8.74
	c-0.12-18.21-0.06-36.42-0.06-54.63c0-4.65,0.21-4.81,5.28-3.84c0,0.85,0,1.77,0,2.68c0,18.52,0,37.05,0,55.57
	c0,10.61,6.85,17.47,17.53,17.54C178.65,160.31,181.31,160.29,184.23,160.29z"/>
<path class="st0" d="M237.3,102.48c5.17-0.64,5.17-0.64,5.17,4.05c0,10.75-0.07,21.51,0.02,32.26
	c0.14,15.32,14.88,25.49,29.04,20.07c4.6-1.76,8.19-4.82,11.24-8.96c0,2.45,0.06,4.9-0.05,7.34c-0.02,0.51-0.54,1.11-0.99,1.49
	c-8.6,7.27-18.38,8.95-28.55,4.52c-10.06-4.37-15.86-12.36-15.97-23.71c-0.11-11.61-0.03-23.23-0.02-34.85
	C237.19,104,237.26,103.31,237.3,102.48z"/>
<path class="st0" d="M194.97,165.33c-1.8,0-3.42,0-5.17,0c0-20.96,0-41.79,0-62.84c1.66,0,3.32,0,5.17,0
	C194.97,123.34,194.97,144.23,194.97,165.33z"/>
<path class="st0" d="M176.22,109.61c0,1.69,0,3.16,0,4.84c-4.89,0-9.7,0-14.74,0c0-1.55,0-3.13,0-4.84
	C166.35,109.61,171.18,109.61,176.22,109.61z"/>
<path class="st0" d="M195.04,89.87c0,1.62,0,3.15,0,4.86c-1.76,0-3.42,0-5.23,0c0-1.61,0-3.14,0-4.86
	C191.43,89.87,193.1,89.87,195.04,89.87z"/>
<path class="st1" d="M72.34,249.01l1,1L72.34,249.01z"/>
<path class="st1" d="M73.67,253.67l0.33,0.67L73.67,253.67z"/>
<path class="st1" d="M76.01,345.34l0.67,0.33L76.01,345.34z"/>
<path class="st1" d="M72.34,347.01l1,1L72.34,347.01 M75.34,347.01l1,1L75.34,347.01z"/>
<path class="st1" d="M67.34,360.01l1,1L67.34,360.01z"/>
</svg>
