<?xml version="1.0" encoding="utf-8"?>
<!-- Generator: Adobe Illustrator 26.0.1, SVG Export Plug-In . SVG Version: 6.00 Build 0)  -->
<svg version="1.1" id="Layer_1" xmlns="http://www.w3.org/2000/svg" xmlns:xlink="http://www.w3.org/1999/xlink" x="0px" y="0px"
	 viewBox="0 0 300 250" style="enable-background:new 0 0 300 250;" xml:space="preserve">
<style type="text/css">
	.st0{fill:#A39EFF;}
	.st1{fill:#CDCAFF;}
	.st2{fill:#584CFF;}
	.st3{fill:#FFFFFF;}
</style>
<path class="st0" d="M65.34,233.01l1,1L65.34,233.01z"/>
<path class="st1" d="M69.34,248.01l1,1L69.34,248.01z"/>
<path class="st1" d="M70.67,252.67l0.33,0.67L70.67,252.67z"/>
<path class="st1" d="M76.01,345.34l0.67,0.33L76.01,345.34z"/>
<path class="st1" d="M72.34,347.01l1,1L72.34,347.01 M75.34,347.01l1,1L75.34,347.01z"/>
<path class="st1" d="M67.34,360.01l1,1L67.34,360.01z"/>
<path class="st2" d="M150.71,50.63c-24.99,0-52.51-4.54-72.42,13.9c-15.01,13.9-15.26,32.06-15.26,50.91v37.65
	c0,11.37-1.63,24.17,1.13,35.26c2.61,10.5,8.11,19.31,16.02,26.64c12.99,12.04,29.15,12.43,45.75,12.43h49.56
	c6.79,0,14.28-1.03,20.97-0.38c14.56,1.41,27.9,12.06,42.41,14.2l-7.11-8.1l-14.34-15.25c5.15-2.18,9.62-7.86,12.7-12.39
	c11.95-17.58,8.74-39.4,8.74-59.57c0-31.18,6.83-69.16-24.3-88.25C210,54.89,205,52.9,199.79,51.7
	c-13.31-3.09-28.79-1.07-42.41-1.07c0-7.29-1.79-17.24,0.15-24.25c0.47-1.7,2.29-2.34,3.41-3.54c2.16-2.32,3.09-5.81,2.38-8.9
	c-2.15-9.32-16.9-9.81-18.65,0c-0.53,2.98-0.07,6.18,1.94,8.53c1.26,1.49,3.42,2.34,3.95,4.35C152.4,33.8,150.71,43.4,150.71,50.63z
	"/>
<path class="st3" d="M202.16,166.14c-13.02,4.74-23.94,12.33-38.12,14.3c-11.35,1.57-23.08,1.73-32.88-5.13
	c-15.29-10.7-17.45-29.62-15.81-46.81c0.67-7.01,1.39-14.28,5.98-20.01c11.21-14.02,35.86-17.93,49.85-5.63
	c7.06,6.21,8.82,13.14,10.96,21.83l-63.38,16.2c4.95,2.07,15.14-0.66,20.49-1.29c14.6-1.73,29.63-3.23,44.32-3.95
	c4.59-0.22,9.25-0.75,13.82-1.29c2.11-0.25,4.55,0.25,4.73-2.53c0.4-6.13-1.73-13.85-3.87-19.53c-2.57-6.81-6.17-13.37-11.36-18.57
	c-28.92-28.93-81.03-11.5-90.57,26.67c-5.64,22.57,0.24,49.44,18.63,64.59C140.93,206.37,188.38,198.13,202.16,166.14z"/>
</svg>
